<svg xmlns="http://www.w3.org/2000/svg" version="1.0" width="500.000000pt" height="500.000000pt" viewBox="0 0 500.000000 500.000000" preserveAspectRatio="xMidYMid meet">
<g transform="translate(0.000000,500.000000) scale(0.100000,-0.100000)" stroke="none">
<path d="M440 2650 l0 -1080 225 0 225 0 0 91 0 92 26 -49 c57 -109 121 -149 239 -149 149 0 251 62 312 187 61 124 63 151 63 747 0 589 -4 639 -56 746 -59 121 -148 175 -299 183 -109 5 -171 -11 -241 -64 l-44 -34 0 205 0 205 -225 0 -225 0 0 -1080z m615 418 c28 -35 30 -63 33 -548 4 -528 0 -586 -41 -615 -25 -17 -70 -20 -98 -5 -10 6 -27 25 -36 43 -17 29 -18 74 -18 547 0 573 -1 565 65 586 29 10 85 5 95 -8z"/>
<path d="M1560 2650 l0 -1080 220 0 220 0 0 1080 0 1080 -220 0 -220 0 0 -1080z"/>
<path d="M2406 3404 c-89 -21 -169 -69 -236 -141 -68 -73 -89 -108 -121 -213 -24 -75 -24 -78 -24 -570 0 -546 1 -554 65 -687 35 -70 114 -148 185 -183 150 -73 399 -78 563 -13 120 48 215 162 258 308 26 87 33 961 10 1088 -40 211 -181 365 -377 412 -80 18 -244 18 -323 -1z m238 -357 c21 -28 21 -38 24 -550 2 -380 -1 -529 -9 -550 -33 -79 -150 -76 -178 5 -7 21 -11 201 -11 535 0 533 2 555 47 582 10 6 38 10 62 8 35 -2 48 -8 65 -30z"/>
<path d="M3385 3406 c-94 -30 -139 -69 -180 -158 -51 -112 -55 -154 -55 -663 0 -445 1 -474 21 -545 26 -95 56 -147 115 -199 64 -56 130 -75 248 -69 128 6 188 39 236 134 l21 39 -4 -90 c-5 -158 -62 -231 -185 -242 -74 -7 -185 17 -271 57 -35 17 -66 28 -70 26 -10 -7 -141 -231 -141 -242 0 -15 93 -73 158 -100 205 -82 580 -66 749 32 51 31 115 99 143 154 12 23 31 76 43 118 21 75 21 93 25 910 l3 832 -225 0 -226 0 0 -92 0 -91 -31 62 c-33 65 -75 105 -136 127 -48 17 -185 17 -238 0z m355 -344 c15 -16 33 -46 39 -68 13 -48 15 -741 1 -798 -5 -22 -17 -51 -28 -65 -16 -22 -27 -26 -67 -26 -41 0 -51 4 -69 28 -21 28 -21 37 -21 469 l0 440 28 24 c38 33 81 31 117 -4z"/>
<path d="M4600 1901 c-112 -34 -185 -133 -185 -251 0 -85 30 -148 96 -200 212 -168 509 76 386 316 -56 109 -186 168 -297 135z" fill="#EC2E3A"/>
</g>
</svg>